<?xml version="1.0" encoding="UTF-8" standalone="no"?>
<svg
   xmlns:dc="http://purl.org/dc/elements/1.1/"
   xmlns:cc="http://creativecommons.org/ns#"
   xmlns:rdf="http://www.w3.org/1999/02/22-rdf-syntax-ns#"
   xmlns:svg="http://www.w3.org/2000/svg"
   xmlns="http://www.w3.org/2000/svg"
   xmlns:sodipodi="http://sodipodi.sourceforge.net/DTD/sodipodi-0.dtd"
   xmlns:inkscape="http://www.inkscape.org/namespaces/inkscape"
   width="16"
   height="16"
   viewBox="0 0 16 16"
   id="svg4460"
   version="1.1"
   inkscape:version="0.48.4 r9939"
   sodipodi:docname="task-closed-light.svg">
  <metadata
     id="metadata4469">
    <rdf:RDF>
      <cc:Work
         rdf:about="">
        <dc:format>image/svg+xml</dc:format>
        <dc:type
           rdf:resource="http://purl.org/dc/dcmitype/StillImage" />
      </cc:Work>
    </rdf:RDF>
  </metadata>
  <sodipodi:namedview
     pagecolor="#ffffff"
     bordercolor="#666666"
     borderopacity="1"
     objecttolerance="10"
     gridtolerance="10"
     guidetolerance="10"
     inkscape:pageopacity="0"
     inkscape:pageshadow="2"
     inkscape:window-width="830"
     inkscape:window-height="480"
     id="namedview4467"
     showgrid="false"
     inkscape:zoom="14.75"
     inkscape:cx="8"
     inkscape:cy="8"
     inkscape:window-x="595"
     inkscape:window-y="323"
     inkscape:window-maximized="0"
     inkscape:current-layer="svg4460" />
  <defs
     id="defs4462">
    <style
       type="text/css"
       id="current-color-scheme">
   .ColorScheme-Text { color:#5c616c; } .ColorScheme-Highlight { color:#5294e2; } .ColorScheme-ButtonBackground { color:#d3dae3; }
  </style>
  </defs>
  <path
     style="fill:#f8f8f8;opacity:1;fill-opacity:1"
     class="ColorScheme-Text"
     d="M 3 1 C 0.75 1 1 3 1 3 L 1 15 L 15 15 L 15 3 C 15 1 13 1 13 1 L 3 1 z M 3 3 L 13 3 L 13 3.1640625 L 6.9707031 10.0625 L 4.7207031 7.8125 C 4.3444031 7.4361 3.6596031 7.4362 3.2832031 7.8125 C 3.0950031 8.0007 3 8.26595 3 8.53125 C 3 8.79665 3.0950031 9.0618 3.2832031 9.25 L 6.2832031 12.25 L 7.0644531 13 L 7.7519531 12.1875 L 13 6.1894531 L 13 13 L 7.0644531 13 L 3 13 L 3 8.53125 L 3 3 z"
     id="path4465" />
</svg>
