<?xml version="1.0" encoding="UTF-8" standalone="no"?>
<!-- Created with Inkscape (http://www.inkscape.org/) -->

<svg
   xmlns:dc="http://purl.org/dc/elements/1.1/"
   xmlns:cc="http://creativecommons.org/ns#"
   xmlns:rdf="http://www.w3.org/1999/02/22-rdf-syntax-ns#"
   xmlns:svg="http://www.w3.org/2000/svg"
   xmlns="http://www.w3.org/2000/svg"
   xmlns:sodipodi="http://sodipodi.sourceforge.net/DTD/sodipodi-0.dtd"
   xmlns:inkscape="http://www.inkscape.org/namespaces/inkscape"
   id="svg7384"
   height="16.024"
   width="16.085"
   version="1.1"
   inkscape:version="0.48.4 r9939"
   sodipodi:docname="view-restore-symbolic.svg">
  <defs
     id="defs17" />
  <sodipodi:namedview
     pagecolor="#ffffff"
     bordercolor="#666666"
     borderopacity="1"
     objecttolerance="10"
     gridtolerance="10"
     guidetolerance="10"
     inkscape:pageopacity="0"
     inkscape:pageshadow="2"
     inkscape:window-width="1920"
     inkscape:window-height="1025"
     id="namedview15"
     showgrid="false"
     inkscape:zoom="41.656814"
     inkscape:cx="3.6402712"
     inkscape:cy="5.915639"
     inkscape:window-x="0"
     inkscape:window-y="0"
     inkscape:window-maximized="1"
     inkscape:current-layer="svg7384" />
  <metadata
     id="metadata90">
    <rdf:RDF>
      <cc:Work
         rdf:about="">
        <dc:format>image/svg+xml</dc:format>
        <dc:type
           rdf:resource="http://purl.org/dc/dcmitype/StillImage" />
        <dc:title>Gnome Symbolic Icon Theme</dc:title>
      </cc:Work>
    </rdf:RDF>
  </metadata>
  <title
     id="title9167">Gnome Symbolic Icon Theme</title>
  <g
     id="g3003"
     style="fill:#f8f8f8;fill-opacity:1">
    <path
       id="path12113-8"
       style="text-indent:0;text-transform:none;block-progression:tb;color:#000000;fill:#f8f8f8;enable-background:new;fill-opacity:1"
       d="M 10.827898,0.03690618 A 0.99868873,0.99728206 0 0 0 10.047999,1.0340886 V 5.022818 a 0.99868873,0.99728206 0 0 0 0.99859,0.9971822 h 3.994355 a 0.99868873,0.99728206 0 1 0 0,-1.9943646 h -2.995766 v -2.991547 a 0.99868873,0.99728206 0 0 0 -1.21708,-0.99718242 z"
       inkscape:connector-curvature="0" />
    <path
       id="path12147-8"
       style="text-indent:0;text-transform:none;block-progression:tb;color:#000000;fill:#f8f8f8;enable-background:new;fill-opacity:1"
       d="m 14.923,0.02 a 1.0001,1.0001 0 0 0 -0.59375,0.28125 l -4,4 a 1.0165,1.0165 0 1 0 1.4375,1.4375 l 4,-4 a 1.0001,1.0001 0 0 0 -0.843,-1.72 z"
       inkscape:connector-curvature="0" />
    <rect
       id="rect12919-5"
       style="color:#000000;fill:#f8f8f8;enable-background:new;fill-opacity:1"
       height="1"
       width="1"
       y="5.02"
       x="10.048" />
    <path
       id="rect13039"
       style="text-indent:0;text-transform:none;block-progression:tb;color:#000000;fill:#f8f8f8;enable-background:new;fill-opacity:1"
       d="m 0.954,6.02 a 1.0001,1.0001 0 0 0 -0.906,1 v 8 a 1.0001,1.0001 0 0 0 1,1 h 8 a 1.0001,1.0001 0 0 0 1,-1 v -8 a 1.0001,1.0001 0 0 0 -1,-1 h -8 a 1.0001,1.0001 0 0 0 -0.09375,0 z m 1.094,2 h 6 v 6 h -6 v -6 z"
       inkscape:connector-curvature="0" />
    <path
       id="path13041"
       style="text-indent:0;text-transform:none;block-progression:tb;color:#000000;fill:#f8f8f8;fill-rule:evenodd;enable-background:new;fill-opacity:1"
       d="m 0.99461274,8.02 a 0.99334194,1.0011039 0 1 0 0.0932712,2 h 7.9379728 a 0.99234582,1.0001 0 1 0 0,-2 H 1.087884 a 0.99234582,1.0001 0 0 0 -0.0930232,0 z"
       inkscape:connector-curvature="0" />
    <rect
       id="rect4479-2-9-9-0-8-6"
       style="color:#000000;fill:#f8f8f8;fill-opacity:1"
       height="1"
       width="1"
       y="5.02"
       x="15.048" />
    <rect
       id="rect4479-2-9-9-0-8-6-6"
       style="color:#000000;fill:#f8f8f8;fill-opacity:1"
       height="1"
       width="1"
       y="0.02"
       x="10.048" />
    <rect
       id="rect4479-2-9-9-0-8-6-9"
       style="color:#000000;fill:#f8f8f8;fill-opacity:1"
       height="1"
       width="1"
       y="15.02"
       x="9.0480003" />
    <rect
       id="rect4479-2-9-9-0-8-6-4"
       style="color:#000000;fill:#f8f8f8;fill-opacity:1"
       height="1"
       width="1"
       y="15.02"
       x="0.048" />
  </g>
</svg>
