<?xml version="1.0" encoding="UTF-8" standalone="no"?>
<!-- Created with Inkscape (http://www.inkscape.org/) -->

<svg
   xmlns:dc="http://purl.org/dc/elements/1.1/"
   xmlns:cc="http://creativecommons.org/ns#"
   xmlns:rdf="http://www.w3.org/1999/02/22-rdf-syntax-ns#"
   xmlns:svg="http://www.w3.org/2000/svg"
   xmlns="http://www.w3.org/2000/svg"
   xmlns:sodipodi="http://sodipodi.sourceforge.net/DTD/sodipodi-0.dtd"
   xmlns:inkscape="http://www.inkscape.org/namespaces/inkscape"
   id="svg7384"
   height="16"
   width="16"
   version="1.1"
   inkscape:version="0.48.4 r9939"
   sodipodi:docname="view-fullscreen-dark.svg">
  <defs
     id="defs18" />
  <sodipodi:namedview
     pagecolor="#ffffff"
     bordercolor="#666666"
     borderopacity="1"
     objecttolerance="10"
     gridtolerance="10"
     guidetolerance="10"
     inkscape:pageopacity="0"
     inkscape:pageshadow="2"
     inkscape:window-width="1920"
     inkscape:window-height="1025"
     id="namedview16"
     showgrid="false"
     inkscape:zoom="20.85965"
     inkscape:cx="-6.9507973"
     inkscape:cy="10.223103"
     inkscape:window-x="0"
     inkscape:window-y="0"
     inkscape:window-maximized="1"
     inkscape:current-layer="svg7384" />
  <metadata
     id="metadata90">
    <rdf:RDF>
      <cc:Work
         rdf:about="">
        <dc:format>image/svg+xml</dc:format>
        <dc:type
           rdf:resource="http://purl.org/dc/dcmitype/StillImage" />
        <dc:title>Gnome Symbolic Icon Theme</dc:title>
      </cc:Work>
    </rdf:RDF>
  </metadata>
  <title
     id="title9167">Gnome Symbolic Icon Theme</title>
  <g
     id="g3783"
     style="fill:#6d6d6d;fill-opacity:1">
    <path
       id="path12113"
       style="text-indent:0;text-transform:none;block-progression:tb;color:#000000;fill:#6d6d6d;enable-background:new;fill-opacity:1"
       d="M 1.7787983,9.0253213 A 0.99728169,0.99587943 0 0 0 0.99999918,10.021101 v 3.98312 A 0.99728169,0.99587943 0 0 0 1.9971811,15 H 5.985909 a 0.99728169,0.99587943 0 1 0 0,-1.991559 H 2.9943631 v -2.98734 A 0.99728169,0.99587943 0 0 0 1.7789977,9.0253213 z"
       inkscape:connector-curvature="0" />
    <path
       id="path12147"
       style="text-indent:0;text-transform:none;block-progression:tb;color:#000000;fill:#6d6d6d;enable-background:new;fill-opacity:1"
       d="M 6.3810126,8.4999243 A 0.99493295,0.99491386 0 0 0 5.7903302,8.7797158 L 1.3135796,13.256381 a 1.0112482,1.0112288 0 1 0 1.4300731,1.430045 L 7.2204033,10.209761 A 0.99493295,0.99491386 0 0 0 6.3817587,8.4986807 z"
       inkscape:connector-curvature="0" />
    <rect
       id="rect12919"
       style="color:#000000;fill:#6d6d6d;enable-background:new;fill-opacity:1"
       height="1"
       width="1"
       y="14"
       x="1" />
    <path
       id="path12111"
       style="text-indent:0;text-transform:none;block-progression:tb;color:#000000;fill:#6d6d6d;enable-background:new;fill-opacity:1"
       d="m 9.9488253,0.9999969 a 0.99268779,0.99828313 0 0 0 0.09321,1.9943647 h 2.974779 v 2.991547 a 0.99169232,0.99728206 0 1 0 1.983187,0 V 1.9971793 A 0.99169232,0.99728206 0 0 0 14.008407,0.9999969 h -3.966372 a 0.99169232,0.99728206 0 0 0 -0.092962,0 z"
       inkscape:connector-curvature="0" />
    <rect
       id="rect12923"
       style="color:#000000;fill:#6d6d6d;enable-background:new;fill-opacity:1"
       height="1"
       width="1"
       y="1"
       x="14" />
    <path
       id="path12925"
       style="text-indent:0;text-transform:none;block-progression:tb;color:#000000;fill:#6d6d6d;enable-background:new;fill-opacity:1"
       d="m 13.699214,1.0589194 a 0.98467772,0.99102225 0 0 0 -0.49229,0.2786972 L 8.7763178,5.765854 A 1.0008248,1.0072734 0 1 0 10.19165,7.190306 L 14.622257,2.7620686 A 0.98467772,0.99102225 0 0 0 13.699706,1.0576808 z"
       inkscape:connector-curvature="0" />
    <rect
       id="rect4479-2"
       style="color:#000000;fill:#6d6d6d;fill-opacity:1"
       height="1"
       width="1"
       y="9"
       x="1" />
    <rect
       id="rect4479-2-9"
       style="color:#000000;fill:#6d6d6d;fill-opacity:1"
       height="1"
       width="1"
       y="14"
       x="6" />
    <rect
       id="rect4479-2-9-9-0-8"
       style="color:#000000;fill:#6d6d6d;fill-opacity:1"
       height="1"
       width="1"
       y="6"
       x="14" />
    <rect
       id="rect4479-2-9-9-0-8-1"
       style="color:#000000;fill:#6d6d6d;fill-opacity:1"
       height="1"
       width="1"
       y="1"
       x="9" />
  </g>
</svg>
