<svg xmlns="http://www.w3.org/2000/svg" width="1em" height="1em" viewBox="0 0 24 24"><path fill="black" d="m19.075 21.9l-4.9-4.9H9q-.825 0-1.412-.587T7 15V9.825l-4.9-4.9q-.275-.275-.275-.687t.275-.713q.3-.3.713-.3t.712.3L20.5 20.5q.3.3.288.7t-.313.7q-.3.275-.7.288t-.7-.288m-6.9-6.9L9 11.825V15zM17 14.175l-2-2V9h-3.175l-2-2H15q.825 0 1.413.588T17 9zM8 5q-.425 0-.712-.288T7 4t.288-.712T8 3t.713.288T9 4t-.288.713T8 5m4 0q-.425 0-.712-.288T11 4t.288-.712T12 3t.713.288T13 4t-.288.713T12 5m4 0q-.425 0-.712-.288T15 4t.288-.712T16 3t.713.288T17 4t-.288.713T16 5m4 0q-.425 0-.712-.288T19 4t.288-.712T20 3t.713.288T21 4t-.288.713T20 5M4 9q-.425 0-.712-.288T3 8t.288-.712T4 7t.713.288T5 8t-.288.713T4 9m16 0q-.425 0-.712-.288T19 8t.288-.712T20 7t.713.288T21 8t-.288.713T20 9M4 13q-.425 0-.712-.288T3 12t.288-.712T4 11t.713.288T5 12t-.288.713T4 13m16 0q-.425 0-.712-.288T19 12t.288-.712T20 11t.713.288T21 12t-.288.713T20 13M4 17q-.425 0-.712-.288T3 16t.288-.712T4 15t.713.288T5 16t-.288.713T4 17m16 0q-.425 0-.712-.288T19 16t.288-.712T20 15t.713.288T21 16t-.288.713T20 17M4 21q-.425 0-.712-.288T3 20t.288-.712T4 19t.713.288T5 20t-.288.713T4 21m4 0q-.425 0-.712-.288T7 20t.288-.712T8 19t.713.288T9 20t-.288.713T8 21m4 0q-.425 0-.712-.288T11 20t.288-.712T12 19t.713.288T13 20t-.288.713T12 21m4 0q-.425 0-.712-.288T15 20t.288-.712T16 19t.713.288T17 20t-.288.713T16 21"/></svg>