<svg xmlns="http://www.w3.org/2000/svg" width="1em" height="1em" viewBox="0 0 24 24"><path fill="black" d="M11 6q-1.575 0-2.838.863T6.35 9.125q-.15.375-.487.563t-.738.112t-.638-.387t-.112-.663q.675-2.1 2.475-3.425T11 4q1.475 0 2.763.562T16 6.1V5q0-.425.288-.712T17 4t.713.288T18 5v4q0 .425-.288.713T17 10h-4q-.425 0-.712-.288T12 9t.288-.712T13 8h2q-.725-.9-1.737-1.45T11 6m0 12q-1.475 0-2.762-.562T6 15.9V17q0 .425-.288.713T5 18t-.712-.288T4 17v-4q0-.425.288-.712T5 12h4q.425 0 .713.288T10 13t-.288.713T9 14H7q.725.9 1.738 1.45T11 16q1.55 0 2.788-.825T15.6 13q.175-.4.513-.638t.762-.162q.425.1.625.45t.075.75q-.175.5-.413.938t-.562.862l3.7 3.7q.275.275.275.7t-.275.7t-.7.275t-.7-.275l-3.7-3.7q-.9.675-1.962 1.038T11 18"/></svg>