<svg xmlns="http://www.w3.org/2000/svg" width="1em" height="1em" viewBox="0 0 24 24"><path fill="black" d="m6.175 14.9l-.8 2.225q-.1.275-.325.425t-.5.15q-.475 0-.737-.387t-.088-.813l3.45-9.2q.1-.275.338-.438t.512-.162h.7q.275 0 .525.163t.35.437l3.45 9.225q.175.425-.1.8t-.725.375q-.275 0-.5-.162T11.4 17.1l-.775-2.2zm.575-1.6h3.275l-1.6-4.55h-.1zm9.875 4.65q-1.275 0-2.025-.687t-.75-1.813q0-1.1.863-1.812t2.212-.713q.575 0 1.125.1t.95.275V13q0-.725-.513-1.175t-1.362-.45q-.375 0-.737.113t-.663.337q-.325.25-.612.175t-.463-.275t-.175-.475t.275-.475q.5-.4 1.125-.587T17.15 10q1.725 0 2.575.813t.85 2.437v3.675q0 .325-.238.55t-.562.225t-.55-.237T19 16.9v-.125h-.1q-.35.575-.95.875t-1.325.3m.3-1.35q.875 0 1.487-.6t.613-1.4q-.35-.2-.837-.312t-.963-.113q-.8 0-1.25.35t-.45.925q0 .5.4.825t1 .325"/></svg>