<svg xmlns="http://www.w3.org/2000/svg" viewBox="0 0 512 512"><!--!Font Awesome Free 6.5.2 by @fontawesome - https://fontawesome.com License - https://fontawesome.com/license/free Copyright 2024 Fonticons, Inc.--><path d="M61.8 401l17.5-20.2a19.9 19.9 0 0 0 5.1-14.2v-3.3C84.3 356 80.5 352 73 352H16a8 8 0 0 0 -8 8v16a8 8 0 0 0 8 8h22.8a157.4 157.4 0 0 0 -11 12.3l-5.6 7c-4 5.1-5.3 10.1-2.8 14.9l1.1 1.9c3 5.8 6.3 7.9 12.3 7.9h4.7c10.3 0 15.9 2.4 15.9 9.1 0 4.7-4.2 8.2-14.4 8.2a41.5 41.5 0 0 1 -15.5-3.1c-6.5-3.9-11.7-3.5-15.6 3.1l-5.6 9.3c-3.7 6.1-3.2 11.7 2.6 15.9 7.7 4.7 20.4 9.4 37 9.4 34.2 0 48.5-22.8 48.5-44.1 0-14.4-9.1-29.8-28.7-34.9zM496 224H176a16 16 0 0 0 -16 16v32a16 16 0 0 0 16 16h320a16 16 0 0 0 16-16v-32a16 16 0 0 0 -16-16zm0-160H176a16 16 0 0 0 -16 16v32a16 16 0 0 0 16 16h320a16 16 0 0 0 16-16V80a16 16 0 0 0 -16-16zm0 320H176a16 16 0 0 0 -16 16v32a16 16 0 0 0 16 16h320a16 16 0 0 0 16-16v-32a16 16 0 0 0 -16-16zM16 160h64a8 8 0 0 0 8-8v-16a8 8 0 0 0 -8-8H64V40a8 8 0 0 0 -8-8H32a8 8 0 0 0 -7.1 4.4l-8 16A8 8 0 0 0 24 64h8v64H16a8 8 0 0 0 -8 8v16a8 8 0 0 0 8 8zm-3.9 160H80a8 8 0 0 0 8-8v-16a8 8 0 0 0 -8-8H41.3c3.3-10.3 48.3-18.7 48.3-56.4 0-29.1-25-39.6-44.5-39.6-21.4 0-33.8 10-40.5 18.8-4.4 5.6-3 10.8 2.8 15.4l8.6 6.9c5.6 4.6 11 2.5 16.1-2.4a13.4 13.4 0 0 1 9.5-3.8c3.3 0 9.3 1.6 9.3 8.8C51 248.2 0 257.3 0 304.6v4C0 316 5.1 320 12.1 320z"/></svg>