<svg xmlns="http://www.w3.org/2000/svg" width="1em" height="1em" viewBox="0 0 24 24"><path fill="black" d="M2 11.95q0-1.725.563-3.337T4.225 5.65q.275-.325.688-.35t.712.275t.313.713t-.263.762q-.825 1.05-1.25 2.3T4 11.95t.45 2.6t1.25 2.3q.275.35.263.75t-.313.7t-.712.288t-.688-.338q-1.075-1.35-1.662-2.963T2 11.95M9.5 18q-.625 0-1.062-.437T8 16.5t.438-1.062T9.5 15t1.063.438T11 16.5t-.437 1.063T9.5 18m4.475-5q-.425 0-.712-.288T12.975 12v-.775l-.65.4q-.35.2-.762.088t-.613-.463t-.087-.763t.462-.612l.65-.375l-.675-.375q-.35-.2-.45-.612t.1-.763q.2-.375.613-.463t.762.113l.65.375V7q0-.425.288-.712T13.975 6t.713.288t.287.712v.775l.65-.4q.35-.2.763-.088T17 7.75t.088.763t-.463.612l-.65.375l.675.375q.35.2.45.613t-.1.762q-.2.375-.613.463t-.762-.113l-.65-.375V12q0 .425-.288.713t-.712.287M22 11.95q0 1.725-.562 3.338t-1.663 2.962q-.275.325-.687.338t-.713-.288t-.312-.7t.262-.75q.825-1.05 1.25-2.3t.425-2.6t-.45-2.6t-1.25-2.3q-.275-.35-.25-.762t.325-.713t.7-.275t.675.35Q20.825 7 21.413 8.612T22 11.95"/></svg>