<svg height="48" width="48" xmlns="http://www.w3.org/2000/svg" xmlns:xlink="http://www.w3.org/1999/xlink"><linearGradient id="a"><stop offset="0"/><stop offset="1" stop-opacity="0"/></linearGradient><linearGradient id="b" gradientUnits="userSpaceOnUse" x1="16" x2="34.942" xlink:href="#a" y1="11" y2="29.942"/><linearGradient id="c" gradientTransform="matrix(.70710678 .70710678 -.70710678 .70710678 0 0)" gradientUnits="userSpaceOnUse" x1="31.021" x2="43.104" xlink:href="#a" y1="-9.896" y2="-9.896"/><linearGradient id="d" gradientUnits="userSpaceOnUse" x1="23.716" x2="26.348" xlink:href="#a" y1="13.219" y2="15.851"/><linearGradient id="e" gradientTransform="matrix(1.0454421 0 0 1.0298842 46.076843 3.856842)" gradientUnits="userSpaceOnUse" x1="-45.221867" x2=".691726" y1="-4.91011" y2="41.697075"><stop offset="0" stop-color="#2bc0ff"/><stop offset="1" stop-color="#1d99f3"/></linearGradient><path d="m5.9999998-.00000914h36.0000012c3.600001 0 6.000001 2.40000654 6.000001 6.00000714v36c0 3.600002-2.4 6.000008-6.000001 6.000008h-36.0000012c-3.6000002 0-6.00000022-2.400006-6.00000022-6.000008v-36c0-3.6000006 2.40000002-6.00000714 6.00000022-6.00000714z" fill="url(#e)" transform="matrix(.83333329 0 0 .83333329 4 4.000002)"/><g transform="translate(-38 -2)"><circle cx="24" cy="24" opacity=".539" r="7"/><circle cx="24" cy="24" opacity=".539" r="9"/><path d="m22.5 11c-.277 0-.5.223-.5.5l-1 4.5v8 8l1 4.5c0 .277.223.5.5.5h3c.277 0 .43991-.229596.5-.5l1-4.5v-8-8l-1-4.5c-.06009-.270404-.223-.5-.5-.5z" opacity=".539"/><path d="m13.746952 15.868272c-.195869.195869-.195869.511238 0 .707107l2.474873 3.889087 5.656855 5.656854 5.656854 5.656855 3.889087 2.474873c.195869.195869.511238.195869.707107 0l2.12132-2.12132c.195869-.195869.148715-.473412 0-.707107l-2.474873-3.889087-5.656855-5.656854-5.656854-5.656855-3.889087-2.474873c-.233695-.148715-.511238-.195869-.707107 0z" opacity=".539"/><path d="m34.235965 15.868272c.195869.195869.195869.511238 0 .707107l-2.474873 3.889087-5.656855 5.656854-5.656854 5.656855-3.889087 2.474873c-.195869.195869-.511238.195869-.707107 0l-2.12132-2.12132c-.195869-.195869-.148715-.473412 0-.707107l2.474873-3.889087 5.656855-5.656854 5.656854-5.656855 3.889087-2.474873c.233695-.148715.511238-.195869.707107 0z" opacity=".539"/><path d="m37 22.5c0-.277-.223-.5-.5-.5l-4.5-1h-8-8l-4.5 1c-.277 0-.5.223-.5.5v3c0 .277.229596.43991.5.5l4.5 1h8 8l4.5-1c.270404-.06009.5-.223.5-.5z" opacity=".539"/></g><path d="m22.162109 18.726562-2.193359-2.193359-2.304688 1.455078-.867187 1.992188-6.75 6.75 4.607422 4.607422-1.964844 1.748047 9.914063 9.914062h14.208984c2.874065 0 5.1875-2.280321 5.1875-5.111328-8.496284-10.482081-18-21.888672-19.837891-19.16211z" fill="url(#b)" opacity=".2"/><path d="m36.970703 10.988281-4.369141 1.177735-4.519531 9.5 3.917969 8.328125 11.285156 11.285156c.45228-.7842.714844-1.690387.714844-2.660156v-20.601563z" fill="url(#c)" opacity=".2"/><path d="m26.000804 9.9953918 4.531314 4.5313142-3.142254 6.655326-6.28785-6.28785z" fill="url(#d)" opacity=".2"/><path d="m15.208984 14.617188c-.123062-.0059-.241909.03097-.339843.128906l-2.123047 2.123047c-.195869.195869-.195869.511162 0 .707031l2.193359 3.445312c-.175549.354193-.327571.719568-.455078 1.09375l-3.984375.884766c-.277 0-.5.223-.5.5v3c0 .277.229596.43991.5.5l3.986328.886719c.12346.370523.270907.732616.441406 1.083984l-2.197265 3.453125c-.148715.233695-.195869.511162 0 .707031l2.121093 2.123047c.19587.195869.511163.195869.707032 0l3.453125-2.199218c.357212.177942.725864.331927 1.103515.460937l.884766 3.984375c0 .277.223.5.5.5h3c.277 0 .43991-.229596.5-.5l.886719-3.986328c.376029-.125362.743365-.275428 1.099609-.449219l3.4375 2.189453c.195869.195869.511162.195869.707031 0l2.123047-2.123047c.195869-.195869.148715-.473336 0-.707031l-.9375-1.472656-.699218.279297-2.240235-3.359375c-1.128979 2.510379-3.624392 4.126092-6.376953 4.128906-3.865993 0-7-3.134007-7-7 .0031-2.700827 1.559779-5.15891 4-6.316406v-2.152344c-.336475.11516-.665829.250162-.986328.404297l-3.4375-2.189453c-.116848-.07436-.244125-.123012-.367188-.128906z" fill="#fff"/><path d="m26 10-5 .462891v19.537109l5-1v-8l6 9 5-2-6.5-8.414062 6.503906-8.585938-5.236328-1-5.767578 8.5z" fill="#fff"/><path d="m4 38v1c0 3 2 5 5 5h30c3 0 5-2 5-5v-1c0 3-2 5-5 5h-30c-3 0-5-2-5-5z" opacity=".2"/></svg>
