/* XPM */
static char * ghostwriter_xpm[] = {
"32 32 335 2",
"  	c None",
". 	c #D04242",
"+ 	c #CF4444",
"@ 	c #D14646",
"# 	c #D14747",
"$ 	c #D24747",
"% 	c #CF4646",
"& 	c #CF4545",
"* 	c #CE4545",
"= 	c #CD4444",
"- 	c #CC4444",
"; 	c #CB4444",
"> 	c #C94343",
", 	c #C84242",
"' 	c #C34040",
") 	c #BD3F3F",
"! 	c #B63B3B",
"~ 	c #B13737",
"{ 	c #AF3333",
"] 	c #D24545",
"^ 	c #D04444",
"/ 	c #D34646",
"( 	c #D44646",
"_ 	c #D75C5C",
": 	c #DA7070",
"< 	c #DD8484",
"[ 	c #D86E6E",
"} 	c #D45A5A",
"| 	c #CE4444",
"1 	c #CD4343",
"2 	c #CB4141",
"3 	c #CA4141",
"4 	c #C64040",
"5 	c #C03E3E",
"6 	c #BB3C3C",
"7 	c #B43939",
"8 	c #AC3535",
"9 	c #A53131",
"0 	c #D24242",
"a 	c #D54646",
"b 	c #D64747",
"c 	c #DC6B6B",
"d 	c #E5A8A8",
"e 	c #EFDCDC",
"f 	c #F1F1F1",
"g 	c #F0F0F0",
"h 	c #EFEFEF",
"i 	c #EDEDED",
"j 	c #E9D7D7",
"k 	c #E0A4A4",
"l 	c #D36666",
"m 	c #CC4242",
"n 	c #C84141",
"o 	c #C23F3F",
"p 	c #BD3D3D",
"q 	c #B53939",
"r 	c #AE3636",
"s 	c #A73232",
"t 	c #A32C2C",
"u 	c #DC6464",
"v 	c #ECC6C6",
"w 	c #F4F4F4",
"x 	c #F3F3F3",
"y 	c #F2F2F2",
"z 	c #ECECEC",
"A 	c #EBEBEB",
"B 	c #E2BCBC",
"C 	c #D15E5E",
"D 	c #C54040",
"E 	c #BF3E3E",
"F 	c #B73B3B",
"G 	c #B03737",
"H 	c #A83333",
"I 	c #9E2E2E",
"J 	c #E07B7B",
"K 	c #F3EDED",
"L 	c #F5F5F5",
"M 	c #F6F6F6",
"N 	c #EAEAEA",
"O 	c #E7E1E1",
"P 	c #D37373",
"Q 	c #B93B3B",
"R 	c #B23838",
"S 	c #AA3434",
"T 	c #9B2E2E",
"U 	c #D04545",
"V 	c #E39191",
"W 	c #F5F3F3",
"X 	c #F7F7F7",
"Y 	c #F8F8F8",
"Z 	c #E9E9E9",
"` 	c #E8E6E6",
" .	c #D68888",
"..	c #B33838",
"+.	c #9F3030",
"@.	c #E18787",
"#.	c #F9F9F9",
"$.	c #FAFAFA",
"%.	c #E8E8E8",
"&.	c #E6E6E6",
"*.	c #D27D7D",
"=.	c #C13E3E",
"-.	c #A03030",
";.	c #D44B4B",
">.	c #DB7070",
",.	c #E18888",
"'.	c #F2ECEC",
").	c #FCFCFC",
"!.	c #DBDBDB",
"~.	c #7B7B7B",
"{.	c #757575",
"].	c #D0D0D0",
"^.	c #CACACA",
"/.	c #707070",
"(.	c #747474",
"_.	c #CECECE",
":.	c #E2DCDC",
"<.	c #C75C5C",
"[.	c #BD4040",
"}.	c #A13131",
"|.	c #D04646",
"1.	c #D65F5F",
"2.	c #ECD8D8",
"3.	c #BCBCBC",
"4.	c #222222",
"5.	c #1D1D1D",
"6.	c #262626",
"7.	c #CBCBCB",
"8.	c #D3D3D3",
"9.	c #292929",
"0.	c #1C1C1C",
"a.	c #1B1B1B",
"b.	c #212121",
"c.	c #B1B1B1",
"d.	c #E7E7E7",
"e.	c #E4E4E4",
"f.	c #DDDCDC",
"g.	c #D5D4D4",
"h.	c #C59C9C",
"i.	c #AE3E3E",
"j.	c #E7C1C1",
"k.	c #2E2E2E",
"l.	c #656565",
"m.	c #646464",
"n.	c #2D2D2D",
"o.	c #DEDEDE",
"p.	c #E3E3E3",
"q.	c #DDDDDD",
"r.	c #D6D6D6",
"s.	c #BC8F8F",
"t.	c #EEE8E8",
"u.	c #A8A8A8",
"v.	c #282828",
"w.	c #1A1A1A",
"x.	c #A0A0A0",
"y.	c #DCDCDC",
"z.	c #D5D5D5",
"A.	c #CDCDCD",
"B.	c #C3BCBC",
"C.	c #9F3131",
"D.	c #EAD2D2",
"E.	c #767676",
"F.	c #202020",
"G.	c #232323",
"H.	c #717171",
"I.	c #E2E2E2",
"J.	c #CCCCCC",
"K.	c #C0B3B3",
"L.	c #DA7777",
"M.	c #EFEDED",
"N.	c #6F6F6F",
"O.	c #323232",
"P.	c #373737",
"Q.	c #6C6C6C",
"R.	c #E1E1E1",
"S.	c #DADADA",
"T.	c #D2D2D2",
"U.	c #B57575",
"V.	c #9C2F2F",
"W.	c #E4AEAE",
"X.	c #929292",
"Y.	c #787878",
"Z.	c #7A7A7A",
"`.	c #8E8E8E",
" +	c #E5E5E5",
".+	c #DFDFDF",
"++	c #D8D8D8",
"@+	c #D1D1D1",
"#+	c #C19D9D",
"$+	c #9B2F2F",
"%+	c #E4B1B1",
"&+	c #2F2F2F",
"*+	c #242424",
"=+	c #CFCFCF",
"-+	c #BE9393",
";+	c #9A2D2D",
">+	c #E6C0C0",
",+	c #ADADAD",
"'+	c #2A2A2A",
")+	c #3C3C3C",
"!+	c #C3C3C3",
"~+	c #C1C1C1",
"{+	c #3A3A3A",
"]+	c #BE9E9E",
"^+	c #A33030",
"/+	c #972C2C",
"(+	c #E5BEBE",
"_+	c #BB9B9B",
":+	c #A12F2F",
"<+	c #932929",
"[+	c #E1AEAE",
"}+	c #EEEEEE",
"|+	c #C6C6C6",
"1+	c #B48989",
"2+	c #9E2D2D",
"3+	c #912727",
"4+	c #DE9D9D",
"5+	c #C2C2C2",
"6+	c #AF7A7A",
"7+	c #9A2B2B",
"8+	c #8C2525",
"9+	c #D67676",
"0+	c #E0E0E0",
"a+	c #C7C7C7",
"b+	c #BFBFBF",
"c+	c #A55757",
"d+	c #952828",
"e+	c #882323",
"f+	c #CA4242",
"g+	c #CD4848",
"h+	c #E9E3E3",
"i+	c #C9C9C9",
"j+	c #B9B5B5",
"k+	c #912626",
"l+	c #821F1F",
"m+	c #E0B7B7",
"n+	c #D7D7D7",
"o+	c #C4C4C4",
"p+	c #BDBDBD",
"q+	c #B09C9C",
"r+	c #8D2323",
"s+	c #811E1E",
"t+	c #D16464",
"u+	c #E8E7E7",
"v+	c #B7B7B7",
"w+	c #A36B6B",
"x+	c #902525",
"y+	c #882020",
"z+	c #C44141",
"A+	c #C74141",
"B+	c #DEB2B2",
"C+	c #C0C0C0",
"D+	c #B9B9B9",
"E+	c #953636",
"F+	c #892121",
"G+	c #861E1E",
"H+	c #BE3F3F",
"I+	c #CE5757",
"J+	c #E4DBDB",
"K+	c #BABABA",
"L+	c #B3B3B3",
"M+	c #ABABAB",
"N+	c #8E2929",
"O+	c #CE6969",
"P+	c #E3E2E2",
"Q+	c #ACACAC",
"R+	c #A4A4A4",
"S+	c #882D2D",
"T+	c #CC7979",
"U+	c #DDDADA",
"V+	c #C5C5C5",
"W+	c #A5A5A5",
"X+	c #9D9D9D",
"Y+	c #8E4F4F",
"Z+	c #B13838",
"`+	c #BC3C3C",
" @	c #C46363",
".@	c #D8CFCF",
"+@	c #B8B8B8",
"@@	c #B2B2B2",
"#@	c #9B9B9B",
"$@	c #998E8E",
"%@	c #893131",
"&@	c #801D1D",
"*@	c #BA4444",
"=@	c #C68B8B",
"-@	c #D1CECE",
";@	c #B5B5B5",
">@	c #B0B0B0",
",@	c #AAAAAA",
"'@	c #A3A3A3",
")@	c #998D8D",
"!@	c #936B6B",
"~@	c #882929",
"{@	c #841E1E",
"]@	c #AC2F2F",
"^@	c #A23030",
"/@	c #A93434",
"(@	c #AF3636",
"_@	c #B54E4E",
":@	c #BE8484",
"<@	c #C6B5B5",
"[@	c #C8C8C8",
"}@	c #BBBBBB",
"|@	c #ADACAC",
"1@	c #A59595",
"2@	c #9B7C7C",
"3@	c #926666",
"4@	c #8F5454",
"5@	c #8B3E3E",
"6@	c #872727",
"7@	c #8F2020",
"8@	c #9E2C2C",
"9@	c #A43131",
"0@	c #A63232",
"a@	c #AB4646",
"b@	c #AD5A5A",
"c@	c #AC5F5F",
"d@	c #AA5D5D",
"e@	c #A86464",
"f@	c #A25656",
"g@	c #9A3A3A",
"h@	c #942D2D",
"i@	c #8E2323",
"j@	c #9E2A2A",
"k@	c #9B2B2B",
"l@	c #A02D2D",
"m@	c #A12E2E",
"n@	c #992A2A",
"o@	c #942727",
"p@	c #932727",
"q@	c #8F2525",
"r@	c #8A2020",
"s@	c #851F1F",
"t@	c #8E2121",
"    . + @ # $ $ $ $ $ $ $ $ # # % % & * = - ; > , ' ) ! ~ {     ",
"  ] ^ ] ] / / ( ( ( ( ( ( _ : < < [ } + | 1 1 2 3 4 5 6 7 8 9   ",
"0 ^ ] ] / ( ( ( a b c d e f f g h h i j k l 1 m 3 n o p q r s t ",
"^ ^ ] / ( ( a b u v w w x y f f g h h i z A B C 2 3 D E F G H I ",
"^ ] / / ( a b J K L M L w x y f g g h i z A N O P 3 4 E Q R S T ",
"U ] / ( ( b V W X Y Y X M w x y f g h i i z N Z `  .4 5 6 ..8 +.",
"U ] / ( a @.L X #.$.$.#.X L w y f g h h i z N Z %.&.*.=.6 7 8 -.",
"U ] ;.>.,.'.M Y $.).!.~.{.].w x f g ^./.(._.A Z %.&.:.<.[.q 8 }.",
"|.1.2.f x w M Y $.3.4.5.5.6.7.x f 8.9.0.a.b.c.Z %.d.e.f.g.h.i.}.",
"U j.g f y w L Y i k.5.5.5.5.l.x f m.0.0.a.a.n.o.%.&.p.q.r._.s.}.",
"U t.g f y x L X u.5.5.5.5.5.v.y f v.0.0.a.a.w.x.%.&.p.y.z.A.B.C.",
"U D.g f f x w L E.5.5.5.5.5.F.f f G.0.a.a.a.w.H.%.&.I.!.8.J.K.+.",
"U L.M.g f y x w N.5.5.5.5.5.O.f g P.0.a.a.a.w.Q.d.&.R.S.T.7.U.V.",
"U ^ W.g g f y x X.5.5.5.5.0.Y.f g Z.0.a.a.a.w.`.d. +.+++@+#+H $+",
"U ^ %+h g g f f ++6.0.0.0.&+y.g h y.&+a.a.w.*+@+&.p.q.r.=+-+9 ;+",
"U + >+h h g g f f ,+'+0.)+!+g h h i ~+{+a.v.u.d.&.R.!.8.J.]+^+/+",
"& + (+i h h g g g g A r.h g h h i i z N @+p.%.d.e.o.++@+^._+:+<+",
"| | [+i i }+h h h h h h h h h i i z A N Z Z d.&.I.y.z._.|+1+2+3+",
"= 1 4+z z i i i h h h h i i i z z A N Z Z d.&.e.o.++T.^.5+6+7+8+",
"= 1 9+A z z z i i i i i i z z z A N Z Z %.&. +0+!.z._.a+b+c+d+e+",
"f+1 g+h+N A z z z z z z z z A N N Z Z %.d.&.R.y.r.=+i+5+j+$+k+l+",
"f+2 m m+Z N N A A A A A A N N Z Z %.d.&.&.I.y.n+T.7.o+p+q+d+r+s+",
"n 3 2 t+u+Z Z Z Z Z Z Z Z Z Z %.%.d.&. +R.y.n+T.A.|+b+v+w+x+y+s+",
"z+A+3 3 B+d.%.%.Z Z Z Z %.%.d.d.&.&.p.0+y.n+T.A.a+C+D+c.E+F+G+s+",
"H+o 4 A+I+J+&.d.d.d.d.d.d.&.&.&.e.R.o.!.r.T.A.a+~+K+L+M+N+G+G+s+",
"Q p 5 o D O+P+ +&.&.&.&. +e.I.R.o.!.++z.@+7.a+~+K+L+Q+R+S+G+G+s+",
"7 F 6 p E =.T+U+0+0+0+0+o.q.y.S.n+z.T._.^.V+b+K+L+Q+W+X+Y+G+G+s+",
"r Z+q F Q `+p  @.@S.S.S.++n+r.8.@+_.7.a+5+p++@@@Q+W+X+#@$@%@G+&@",
"H S r Z+..q q F *@=@-@T.@+]._.J.^.a+!+b+K+;@>@,@'@X+#@#@)@!@~@{@",
"]@^@s /@8 r (@Z+Z+R _@:@<@[@a+o+5+b+}@v+@@|@1@2@3@4@5@6@G+G+G+7@",
"  8@2+^@9@0@s /@S S S S /@a@b@c@d@e@f@g@h@i@F+G+G+G+G+G+G+G+y+  ",
"    j@7+k@8@l@m@^@^+^+^@m@l@8@k@n@o@p@q@r@G+G+G+G+G+G+G+s@t@    "};
