<?xml version="1.0" encoding="UTF-8" standalone="no"?>
<svg
   xmlns:dc="http://purl.org/dc/elements/1.1/"
   xmlns:cc="http://creativecommons.org/ns#"
   xmlns:rdf="http://www.w3.org/1999/02/22-rdf-syntax-ns#"
   xmlns:svg="http://www.w3.org/2000/svg"
   xmlns="http://www.w3.org/2000/svg"
   xmlns:sodipodi="http://sodipodi.sourceforge.net/DTD/sodipodi-0.dtd"
   xmlns:inkscape="http://www.inkscape.org/namespaces/inkscape"
   width="22"
   height="22"
   viewBox="0 0 22 22"
   id="svg2"
   version="1.1"
   inkscape:version="0.91 r13725"
   sodipodi:docname="copy-html-light.svg">
  <metadata
     id="metadata11">
    <rdf:RDF>
      <cc:Work
         rdf:about="">
        <dc:format>image/svg+xml</dc:format>
        <dc:type
           rdf:resource="http://purl.org/dc/dcmitype/StillImage" />
      </cc:Work>
    </rdf:RDF>
  </metadata>
  <sodipodi:namedview
     pagecolor="#ffffff"
     bordercolor="#666666"
     borderopacity="1"
     objecttolerance="10"
     gridtolerance="10"
     guidetolerance="10"
     inkscape:pageopacity="0"
     inkscape:pageshadow="2"
     inkscape:window-width="1104"
     inkscape:window-height="900"
     id="namedview9"
     showgrid="false"
     inkscape:zoom="10.727273"
     inkscape:cx="11"
     inkscape:cy="11"
     inkscape:window-x="34"
     inkscape:window-y="28"
     inkscape:window-maximized="0"
     inkscape:current-layer="svg2" />
  <defs
     id="defs4">
    <style
       type="text/css"
       id="current-color-scheme">
   .ColorScheme-Text { color:#5c616c; } .ColorScheme-Highlight { color:#5294e2; } .ColorScheme-ButtonBackground { color:#d3dae3; }
  </style>
  </defs>
  <path
     style="fill:#f8f8f8;opacity:1;fill-opacity:1"
     class="ColorScheme-Text"
     transform="translate(3 3)"
     d="M 3 1.0039062 C 3 1.0039062 2 1.0039062 2 2.0039062 L 2 11.003906 C 2 11.003906 2 12.003906 3 12.003906 L 4 12.003906 L 4 3.0039062 L 12 3.0039062 L 12 2.0039062 C 12 1.0039062 11 1.0039062 11 1.0039062 L 3 1.0039062 z M 6 4.0039062 C 6 4.0039062 5 4.0039062 5 5.0039062 L 5 15.003906 C 5 16.003906 6 16.003906 6 16.003906 L 14 16.003906 C 14 16.003906 15 16.0029 15 15 L 15 5.0039062 C 15 4.0039062 14 4.0039062 14 4.0039062 L 6 4.0039062 z M 7 6.0039062 L 13 6.0039062 L 13 14.003906 L 7 14.003906 L 7 6.0039062 z"
     id="path7" />
</svg>
